<?xml version="1.0" standalone="no"?>
<!DOCTYPE svg PUBLIC "-//W3C//DTD SVG 20010904//EN"
 "http://www.w3.org/TR/2001/REC-SVG-20010904/DTD/svg10.dtd">
<svg version="1.0" xmlns="http://www.w3.org/2000/svg"
 width="82.000000pt" height="64.000000pt" viewBox="0 0 82.000000 64.000000"
 preserveAspectRatio="xMidYMid meet">

<g transform="translate(0.000000,64.000000) scale(0.100000,-0.100000)"
fill="#000000" stroke="none">
<path d="M512 622 c-11 -11 -40 -22 -66 -25 -141 -20 -223 -110 -258 -284 -10
-49 -14 -54 -80 -100 -85 -58 -113 -90 -97 -109 15 -18 57 -17 89 1 40 23 63
18 135 -30 38 -25 87 -52 110 -61 38 -14 47 -14 93 0 56 16 123 58 187 117 35
32 48 37 102 41 35 2 65 7 68 10 3 3 11 33 17 67 10 52 9 73 -6 138 -23 95
-70 152 -151 182 -29 11 -65 31 -79 46 -30 30 -40 31 -64 7z m48 -12 c12 -8 9
-10 -13 -10 -16 0 -26 4 -22 10 8 12 16 12 35 0z m-135 -62 c-45 -39 -81 -109
-105 -202 l-18 -71 -51 -3 c-59 -3 -60 -1 -37 83 17 66 48 124 83 157 33 31
108 67 141 68 21 0 20 -3 -13 -32z m153 5 c24 -34 42 -96 42 -145 0 -48 -20
-181 -29 -197 -5 -8 -37 -3 -114 19 -59 16 -113 30 -120 30 -35 1 -39 15 -22
81 38 146 110 239 186 239 30 0 42 -6 57 -27z m99 -13 c63 -36 98 -85 114
-159 11 -53 8 -159 -6 -180 -3 -7 -42 -11 -92 -11 l-85 0 6 32 c3 18 9 83 12
144 6 98 4 115 -14 157 -19 43 -19 47 -4 47 9 0 41 -14 69 -30z m-286 -305
c52 -14 129 -33 172 -43 42 -9 76 -20 75 -23 -8 -19 -118 -101 -155 -115 -56
-22 -96 -11 -187 52 -74 50 -132 74 -180 74 -30 0 -29 1 29 40 74 49 111 51
246 15z m-186 -93 c17 -8 56 -33 89 -55 32 -21 74 -44 93 -49 46 -13 35 -22
-17 -13 -22 4 -64 23 -93 42 -106 72 -169 88 -227 58 -31 -16 -41 -6 -16 14
38 32 111 33 171 3z m-109 -21 c-8 -12 -46 -21 -46 -11 0 5 8 11 18 13 29 8
33 7 28 -2z"/>
</g>
</svg>
